<svg xmlns="http://www.w3.org/2000/svg" viewBox="0 0 128 128" role="img" aria-label="نشان خودروتو">
 <defs><linearGradient id="g" x1="20" y1="15" x2="110" y2="118" gradientUnits="userSpaceOnUse"><stop stop-color="#ff8069"/><stop offset="1" stop-color="#df4935"/></linearGradient><filter id="s" x="-20%" y="-20%" width="140%" height="140%"><feDropShadow dx="0" dy="8" stdDeviation="8" flood-color="#10233f" flood-opacity=".18"/></filter></defs>
 <rect x="10" y="10" width="108" height="108" rx="32" fill="url(#g)" filter="url(#s)"/>
 <path d="M28 70.5c2.4-8.8 6-15.5 10.8-20.2 3.5-3.4 8-5.2 13.5-5.2h24.5c5.6 0 10.2 1.8 13.7 5.4 4.7 4.8 8 11.4 10.2 20" fill="none" stroke="#fff" stroke-width="8" stroke-linecap="round"/>
 <path d="M24 75h80v13c0 4.4-3.6 8-8 8H32c-4.4 0-8-3.6-8-8V75Z" fill="#fff"/>
 <path d="M44 46.5 35 75h58l-9.5-28.5" fill="#10233f" fill-opacity=".15"/>
 <circle cx="42" cy="89" r="8" fill="#10233f"/><circle cx="86" cy="89" r="8" fill="#10233f"/>
 <path d="M37 76h14M77 76h14" stroke="#f06a52" stroke-width="5" stroke-linecap="round"/>
</svg>
